<?xml version="1.0" encoding="UTF-8" standalone="no"?>
<svg
   xmlns:dc="http://purl.org/dc/elements/1.1/"
   xmlns:cc="http://creativecommons.org/ns#"
   xmlns:rdf="http://www.w3.org/1999/02/22-rdf-syntax-ns#"
   xmlns:svg="http://www.w3.org/2000/svg"
   xmlns="http://www.w3.org/2000/svg"
   xmlns:sodipodi="http://sodipodi.sourceforge.net/DTD/sodipodi-0.dtd"
   xmlns:inkscape="http://www.inkscape.org/namespaces/inkscape"
   width="60"
   height="60"
   viewBox="0 0 60 60"
   fill="none"
   version="1.1"
   id="svg15"
   sodipodi:docname="pause.svg"
   inkscape:version="1.0.1 (3bc2e813f5, 2020-09-07)">
  <metadata
     id="metadata19">
    <rdf:RDF>
      <cc:Work
         rdf:about="">
        <dc:format>image/svg+xml</dc:format>
        <dc:type
           rdf:resource="http://purl.org/dc/dcmitype/StillImage" />
      </cc:Work>
    </rdf:RDF>
  </metadata>
  <sodipodi:namedview
     pagecolor="#ffffff"
     bordercolor="#666666"
     borderopacity="1"
     objecttolerance="10"
     gridtolerance="10"
     guidetolerance="10"
     inkscape:pageopacity="0"
     inkscape:pageshadow="2"
     inkscape:window-width="1920"
     inkscape:window-height="1001"
     id="namedview17"
     showgrid="false"
     inkscape:zoom="6.9166665"
     inkscape:cx="50.13338"
     inkscape:cy="42.069973"
     inkscape:window-x="-9"
     inkscape:window-y="-9"
     inkscape:window-maximized="1"
     inkscape:current-layer="svg15"
     inkscape:document-rotation="0" />
  <g
     clip-path="url(#clip0)"
     id="g8">
    <rect
       x="15"
       y="10"
       width="12.0588"
       height="40"
       fill="#F9F4E3"
       id="rect4" />
    <rect
       x="32.9412"
       y="10"
       width="12.0588"
       height="40"
       fill="#F9F4E3"
       id="rect6" />
  </g>
  <defs
     id="defs13">
    <clipPath
       id="clip0">
      <rect
         width="30"
         height="40"
         fill="white"
         transform="translate(15 10)"
         id="rect10" />
    </clipPath>
  </defs>
  <path
     style="fill:#000000;stroke-width:0.0722892"
     d="M 15.036145,30 V 10.048193 h 6 6 V 30 49.951807 h -6 -6 z"
     id="path21" />
  <path
     style="fill:#ffffff;stroke-width:0.0722892"
     d="M 32.963855,30 V 10.048193 h 6 6 V 30 49.951807 h -6 -6 z"
     id="path23" />
  <path
     style="fill:#f9f9f9;stroke-width:0.0722892"
     d="M 32.963855,30 V 10.048193 h 6 6 V 30 49.951807 h -6 -6 z"
     id="path25" />
  <path
     style="fill:#f9f9f9;stroke-width:0.0722892"
     d="M 32.963855,30 V 10.048193 h 6 6 V 30 49.951807 h -6 -6 z"
     id="path27" />
  <path
     style="fill:#000000;stroke-width:0.0722892"
     d="M 32.963855,30 V 10.048193 h 6 6 V 30 49.951807 h -6 -6 z"
     id="path56" />
  <path
     style="fill:none;stroke-width:0.144578"
     d="M 0.10928242,30.069973 V 0.14226162 H 30.036994 59.964706 V 30.069973 59.997685 H 30.036994 0.10928242 Z M 27.109791,30.033829 27.146443,9.9735871 H 21.001357 14.856271 V 29.973587 c 0,11.000001 0.04408,20.044079 0.09795,20.097952 0.05387,0.05387 2.802668,0.08098 6.108433,0.06024 l 6.010482,-0.03771 z m 17.927711,0 0.03665,-20.0602419 H 38.929068 32.783982 V 29.973587 c 0,11.000001 0.04408,20.044079 0.09795,20.097952 0.05387,0.05387 2.802668,0.08098 6.108434,0.06024 l 6.010482,-0.03771 z"
     id="path20" />
  <path
     style="fill:none;stroke-width:0.144578"
     d="M 0.10928242,30.069973 V 0.14226162 H 30.036994 59.964706 V 30.069973 59.997685 H 30.036994 0.10928242 Z M 27.109791,30.033829 27.146443,9.9735871 H 21.001357 14.856271 V 29.973587 c 0,11.000001 0.04408,20.044079 0.09795,20.097952 0.05387,0.05387 2.802668,0.08098 6.108433,0.06024 l 6.010482,-0.03771 z m 17.927711,0 0.03665,-20.0602419 H 38.929068 32.783982 V 29.973587 c 0,11.000001 0.04408,20.044079 0.09795,20.097952 0.05387,0.05387 2.802668,0.08098 6.108434,0.06024 l 6.010482,-0.03771 z"
     id="path22" />
  <path
     style="fill:none;stroke-width:0.144578"
     d="M 0.10928242,30.069973 V 0.14226162 H 30.036994 59.964706 V 30.069973 59.997685 H 30.036994 0.10928242 Z M 27.109791,30.033829 27.146443,9.9735871 H 21.001357 14.856271 V 29.973587 c 0,11.000001 0.04408,20.044079 0.09795,20.097952 0.05387,0.05387 2.802668,0.08098 6.108433,0.06024 l 6.010482,-0.03771 z m 17.927711,0 0.03665,-20.0602419 H 38.929068 32.783982 V 29.973587 c 0,11.000001 0.04408,20.044079 0.09795,20.097952 0.05387,0.05387 2.802668,0.08098 6.108434,0.06024 l 6.010482,-0.03771 z"
     id="path24" />
  <path
     style="fill:none;stroke-width:0.144578"
     d="M 0.10928242,30.069973 V 0.14226162 H 30.036994 59.964706 V 30.069973 59.997685 H 30.036994 0.10928242 Z M 27.109791,30.033829 27.146443,9.9735871 H 21.001357 14.856271 V 29.973587 c 0,11.000001 0.04408,20.044079 0.09795,20.097952 0.05387,0.05387 2.802668,0.08098 6.108433,0.06024 l 6.010482,-0.03771 z m 17.927711,0 0.03665,-20.0602419 H 38.929068 32.783982 V 29.973587 c 0,11.000001 0.04408,20.044079 0.09795,20.097952 0.05387,0.05387 2.802668,0.08098 6.108434,0.06024 l 6.010482,-0.03771 z"
     id="path26" />
  <path
     style="fill:none;stroke-width:0.144578"
     d="M 0.10928242,30.069973 V 0.14226162 H 30.036994 59.964706 V 30.069973 59.997685 H 30.036994 0.10928242 Z M 27.109791,30.033829 27.146443,9.9735871 H 21.001357 14.856271 V 29.973587 c 0,11.000001 0.04408,20.044079 0.09795,20.097952 0.05387,0.05387 2.802668,0.08098 6.108433,0.06024 l 6.010482,-0.03771 z m 17.927711,0 0.03665,-20.0602419 H 38.929068 32.783982 V 29.973587 c 0,11.000001 0.04408,20.044079 0.09795,20.097952 0.05387,0.05387 2.802668,0.08098 6.108434,0.06024 l 6.010482,-0.03771 z"
     id="path28" />
  <path
     style="fill:none;stroke-width:0.144578"
     d="M 0.10928242,30.069973 V 0.14226162 H 30.036994 59.964706 V 30.069973 59.997685 H 30.036994 0.10928242 Z M 27.109791,30.033829 27.146443,9.9735871 H 21.001357 14.856271 V 29.973587 c 0,11.000001 0.04408,20.044079 0.09795,20.097952 0.05387,0.05387 2.802668,0.08098 6.108433,0.06024 l 6.010482,-0.03771 z m 17.927711,0 0.03665,-20.0602419 H 38.929068 32.783982 V 29.973587 c 0,11.000001 0.04408,20.044079 0.09795,20.097952 0.05387,0.05387 2.802668,0.08098 6.108434,0.06024 l 6.010482,-0.03771 z"
     id="path30" />
  <path
     style="fill:none;stroke-width:0.144578"
     d="M 0.10928242,30.069973 V 0.14226162 H 30.036994 59.964706 V 30.069973 59.997685 H 30.036994 0.10928242 Z M 27.109791,30.033829 27.146443,9.9735871 H 21.001357 14.856271 V 29.973587 c 0,11.000001 0.04408,20.044079 0.09795,20.097952 0.05387,0.05387 2.802668,0.08098 6.108433,0.06024 l 6.010482,-0.03771 z m 17.927711,0 0.03665,-20.0602419 H 38.929068 32.783982 V 29.973587 c 0,11.000001 0.04408,20.044079 0.09795,20.097952 0.05387,0.05387 2.802668,0.08098 6.108434,0.06024 l 6.010482,-0.03771 z"
     id="path32" />
  <path
     style="fill:none;stroke-width:0.144578"
     d="M 0.10928242,30.069973 V 0.14226162 H 30.036994 59.964706 V 30.069973 59.997685 H 30.036994 0.10928242 Z M 27.109791,30.033829 27.146443,9.9735871 H 21.001357 14.856271 V 29.973587 c 0,11.000001 0.04408,20.044079 0.09795,20.097952 0.05387,0.05387 2.802668,0.08098 6.108433,0.06024 l 6.010482,-0.03771 z m 17.927711,0 0.03665,-20.0602419 H 38.929068 32.783982 V 29.973587 c 0,11.000001 0.04408,20.044079 0.09795,20.097952 0.05387,0.05387 2.802668,0.08098 6.108434,0.06024 l 6.010482,-0.03771 z"
     id="path34" />
</svg>
